<?xml version="1.0" encoding="UTF-8" standalone="no"?>
<svg
   xmlns:dc="http://purl.org/dc/elements/1.1/"
   xmlns:cc="http://creativecommons.org/ns#"
   xmlns:rdf="http://www.w3.org/1999/02/22-rdf-syntax-ns#"
   xmlns:svg="http://www.w3.org/2000/svg"
   xmlns="http://www.w3.org/2000/svg"
   xmlns:sodipodi="http://sodipodi.sourceforge.net/DTD/sodipodi-0.dtd"
   xmlns:inkscape="http://www.inkscape.org/namespaces/inkscape"
   viewBox="0 0 39.041695 39.099998"
   version="1.1"
   id="svg4"
   sodipodi:docname="bell.svg"
   width="39.041695"
   height="39.099998"
   inkscape:version="0.92.2 (5c3e80d, 2017-08-06)">
  <metadata
     id="metadata10">
    <rdf:RDF>
      <cc:Work
         rdf:about="">
        <dc:format>image/svg+xml</dc:format>
        <dc:type
           rdf:resource="http://purl.org/dc/dcmitype/StillImage" />
        <dc:title></dc:title>
      </cc:Work>
    </rdf:RDF>
  </metadata>
  <defs
     id="defs8" />
  <sodipodi:namedview
     pagecolor="#ffffff"
     bordercolor="#666666"
     borderopacity="1"
     objecttolerance="10"
     gridtolerance="10"
     guidetolerance="10"
     inkscape:pageopacity="0"
     inkscape:pageshadow="2"
     inkscape:window-width="1920"
     inkscape:window-height="1016"
     id="namedview6"
     showgrid="false"
     fit-margin-top="0"
     fit-margin-left="0"
     fit-margin-right="0"
     fit-margin-bottom="0"
     inkscape:zoom="4.9166667"
     inkscape:cx="-71.987594"
     inkscape:cy="18.786441"
     inkscape:window-x="0"
     inkscape:window-y="27"
     inkscape:window-maximized="1"
     inkscape:current-layer="svg4" />
  <path
     d="m 17.237829,2.3 v 1.3 c -9.8999997,1 -11.0999997,8.9 -12.0999997,15.9 -0.7,4.7 -1.3,9.6 -4.49999996,12.9 -0.6,0.7 -0.8,1.6 -0.5,2.5 0.4,0.8 1.19999996,1.4 2.09999996,1.4 H 16.537829 c 0.1,1.6 1.3,2.8 2.9,2.8 1.5,0 2.8,-1.3 2.9,-2.8 h 14.4 c 0.9,0 1.8,-0.6 2.1,-1.4 0.4,-0.8 0.2,-1.8 -0.5,-2.5 -3.2,-3.3 -3.9,-8.2 -4.5,-12.9 -1,-7 -2.1,-14.9 -12,-15.9 V 2.3 c 0,-1.3 -1,-2.3 -2.3,-2.3 -1.3,0 -2.3,1 -2.3,2.3 z m 2.2,5.8 c 7.8,0 8.7,3.9 9.8,12 0.5,3.8 1.1,7.9 3,11.6 H 6.7378293 c 1.9,-3.7 2.5,-7.8 3,-11.6 1.0999997,-8.1 1.9999997,-12 9.6999997,-12 z"
     id="path2"
     inkscape:connector-curvature="0"
     style="fill:#408cff;fill-opacity:1" />
</svg>
